<?xml version="1.0" encoding="UTF-8"?>
<svg width="960px" height="441px" viewBox="0 0 960 441" version="1.1" xmlns="http://www.w3.org/2000/svg" xmlns:xlink="http://www.w3.org/1999/xlink">
    <title>Page 1</title>
    <g id="Page-1" stroke="none" stroke-width="1" fill="none" fill-rule="evenodd">
        <rect id="Rectangle" x="-55" y="-186" width="1080" height="768"></rect>
        <g id="Application" transform="translate(0.000000, 131.000000)">
            <text font-family="Helvetica" font-size="31" font-weight="normal" fill="#000000">
                <tspan x="0" y="181">Application</tspan>
            </text>
            <g id="layout" transform="translate(8.000000, 0.000000)" stroke="#3271F0" stroke-linecap="round" stroke-linejoin="round" stroke-width="4">
                <rect id="Rectangle" x="0" y="0" width="135" height="135" rx="2"></rect>
                <line x1="0" y1="45" x2="135" y2="45" id="Path"></line>
                <line x1="45" y1="135" x2="45" y2="45" id="Path"></line>
            </g>
        </g>
        <g id="Service-Worker" transform="translate(398.000000, 131.000000)">
            <text font-family="Helvetica" font-size="31" font-weight="normal" fill="#000000">
                <tspan x="0" y="181">Service Worker</tspan>
            </text>
            <g id="settings" transform="translate(38.000000, 0.000000)" stroke="#3271F0" stroke-linecap="round" stroke-linejoin="round" stroke-width="5">
                <circle id="Oval" cx="67.5" cy="67.5" r="18.5"></circle>
                <path d="M112.909091,85.9090909 C111.237874,89.69578 112.039778,94.1183996 114.934091,97.0772727 L115.302273,97.4454545 C117.606809,99.7474286 118.9017,102.871114 118.9017,106.128409 C118.9017,109.385704 117.606809,112.50939 115.302273,114.811364 C113.000299,117.1159 109.876613,118.410791 106.619318,118.410791 C103.362023,118.410791 100.238338,117.1159 97.9363636,114.811364 L97.5681818,114.443182 C94.6093087,111.548868 90.1866891,110.746965 86.4,112.418182 C82.6907485,114.007919 80.2797315,117.648555 80.2636364,121.684091 L80.2636364,122.727273 C80.2636364,129.505313 74.7689492,135 67.9909091,135 C61.212869,135 55.7181818,129.505313 55.7181818,122.727273 L55.7181818,122.175 C55.620961,118.018662 52.9928495,114.344173 49.0909091,112.909091 C45.30422,111.237874 40.8816004,112.039778 37.9227273,114.934091 L37.5545455,115.302273 C35.2525714,117.606809 32.1288862,118.9017 28.8715909,118.9017 C25.6142956,118.9017 22.4906104,117.606809 20.1886364,115.302273 C17.8840999,113.000299 16.5892092,109.876613 16.5892092,106.619318 C16.5892092,103.362023 17.8840999,100.238338 20.1886364,97.9363636 L20.5568182,97.5681818 C23.4511315,94.6093087 24.2530351,90.1866891 22.5818182,86.4 C20.992081,82.6907485 17.3514452,80.2797315 13.3159091,80.2636364 L12.2727273,80.2636364 C5.49468716,80.2636364 0,74.7689492 0,67.9909091 C0,61.212869 5.49468716,55.7181818 12.2727273,55.7181818 L12.825,55.7181818 C16.9813381,55.620961 20.6558273,52.9928495 22.0909091,49.0909091 C23.762126,45.30422 22.9602224,40.8816004 20.0659091,37.9227273 L19.6977273,37.5545455 C17.3931908,35.2525714 16.0983001,32.1288862 16.0983001,28.8715909 C16.0983001,25.6142956 17.3931908,22.4906104 19.6977273,20.1886364 C21.9997013,17.8840999 25.1233865,16.5892092 28.3806818,16.5892092 C31.6379771,16.5892092 34.7616623,17.8840999 37.0636364,20.1886364 L37.4318182,20.5568182 C40.3906913,23.4511315 44.8133109,24.2530351 48.6,22.5818182 L49.0909091,22.5818182 C52.8001605,20.992081 55.2111776,17.3514452 55.2272727,13.3159091 L55.2272727,12.2727273 C55.2272727,5.49468716 60.7219599,0 67.5,0 C74.2780401,0 79.7727273,5.49468716 79.7727273,12.2727273 L79.7727273,12.825 C79.7888224,16.8605361 82.1998395,20.5011719 85.9090909,22.0909091 C89.69578,23.762126 94.1183996,22.9602224 97.0772727,20.0659091 L97.4454545,19.6977273 C99.7474286,17.3931908 102.871114,16.0983001 106.128409,16.0983001 C109.385704,16.0983001 112.50939,17.3931908 114.811364,19.6977273 C117.1159,21.9997013 118.410791,25.1233865 118.410791,28.3806818 C118.410791,31.6379771 117.1159,34.7616623 114.811364,37.0636364 L114.443182,37.4318182 C111.548868,40.3906913 110.746965,44.8133109 112.418182,48.6 L112.418182,49.0909091 C114.007919,52.8001605 117.648555,55.2111776 121.684091,55.2272727 L122.727273,55.2272727 C129.505313,55.2272727 135,60.7219599 135,67.5 C135,74.2780401 129.505313,79.7727273 122.727273,79.7727273 L122.175,79.7727273 C118.139464,79.7888224 114.498828,82.1998395 112.909091,85.9090909 Z" id="Path"></path>
            </g>
        </g>
        <g id="Internet" transform="translate(813.000000, 253.000000)">
            <text font-family="Helvetica" font-size="31" font-weight="normal" fill="#000000">
                <tspan x="15" y="181">Internet</tspan>
            </text>
            <g id="globe" stroke="#3271F0" stroke-linecap="round" stroke-linejoin="round" stroke-width="5">
                <circle id="Oval" cx="67.5" cy="67.5" r="67.5"></circle>
                <line x1="0" y1="67.5" x2="135" y2="67.5" id="Path"></line>
                <path d="M68,0 C84.8836425,18.483882 94.4785811,42.4712285 95,67.5 C94.4785811,92.5287715 84.8836425,116.516118 68,135 C51.1163575,116.516118 41.5214189,92.5287715 41,67.5 C41.5214189,42.4712285 51.1163575,18.483882 68,0 L68,0 Z" id="Path"></path>
            </g>
        </g>
        <g id="Cache" transform="translate(804.000000, 3.000000)">
            <g id="hard-drive" stroke="#3271F0" stroke-linecap="round" stroke-linejoin="round" stroke-width="5">
                <line x1="153" y1="62" x2="0" y2="62" id="Path"></line>
                <path d="M26.3925,8.46375 L0,61 L0,106.75 C0,115.172342 6.85004333,122 15.3,122 L137.7,122 C146.149957,122 153,115.172342 153,106.75 L153,61 L126.6075,8.46375 C124.023865,3.2813602 118.719921,0.00307078035 112.914,0 L40.086,0 C34.2800786,0.00307078035 28.9761346,3.2813602 26.3925,8.46375 Z" id="Path"></path>
                <line x1="29.96" y1="92" x2="30.04" y2="92" id="Path"></line>
                <line x1="60.96" y1="92" x2="61.04" y2="92" id="Path"></line>
            </g>
            <text font-family="Helvetica" font-size="31" font-weight="normal" fill="#000000">
                <tspan x="31" y="170">Cache</tspan>
            </text>
        </g>
        <path id="Line" d="M363.046714,181.595408 L365.225653,182.821061 L389.225653,196.321061 L393.099322,198.5 L389.225653,200.678939 L365.225653,214.178939 L363.046714,215.404592 L360.595408,211.046714 L362.774347,209.821061 L378.455,201 L200.543,201 L216.225653,209.821061 L218.404592,211.046714 L215.953286,215.404592 L213.774347,214.178939 L189.774347,200.678939 L185.900678,198.5 L189.774347,196.321061 L213.774347,182.821061 L215.953286,181.595408 L218.404592,185.953286 L216.225653,187.178939 L200.542,196 L378.458,196 L362.774347,187.178939 L360.595408,185.953286 L363.046714,181.595408 Z" fill="#212121" fill-rule="nonzero"></path>
        <path id="Line" d="M739.64449,90.7609822 L742.113015,91.156433 L769.302679,95.5121401 L773.691169,96.2151637 L770.811476,99.600493 L752.96983,120.574898 L751.350003,122.479146 L747.541507,119.239491 L749.161334,117.335243 L760.819,103.63 L747.421662,108.574675 L621.309453,155.116086 L607.912,160.06 L625.677886,162.906516 L628.146412,163.301967 L627.35551,168.239018 L624.886985,167.843567 L597.697321,163.48786 L593.308831,162.784836 L596.188524,159.399507 L614.03017,138.425102 L615.649997,136.520854 L619.458493,139.760509 L617.838666,141.664757 L606.18,155.369 L619.578338,150.425325 L745.690547,103.883914 L759.087,98.939 L741.322114,96.0934842 L738.853588,95.6980334 L739.64449,90.7609822 Z" fill="#212121" fill-rule="nonzero"></path>
        <path id="Line" d="M627.777679,209.483796 L628.264326,214.460057 L625.776195,214.70338 L607.869,216.454 L620.927607,222.206571 L748.087911,278.217657 L761.145,283.969 L750.350928,269.575584 L748.850928,267.575584 L752.850928,264.575584 L754.350928,266.575584 L770.872731,288.604656 L773.539398,292.160211 L769.116055,292.592786 L741.710452,295.272881 L739.222321,295.516204 L738.735674,290.539943 L741.223805,290.29662 L759.13,288.545 L746.072393,282.793429 L618.912089,226.782343 L605.854,221.03 L616.649072,235.424416 L618.149072,237.424416 L614.149072,240.424416 L612.649072,238.424416 L596.127269,216.395344 L593.460602,212.839789 L597.883945,212.407214 L625.289548,209.727119 L627.777679,209.483796 Z" fill="#212121" fill-rule="nonzero"></path>
    </g>
</svg>
